<?xml version="1.0" encoding="utf-8"?>
<!-- Generator: Adobe Illustrator 21.0.0, SVG Export Plug-In . SVG Version: 6.00 Build 0)  -->
<svg version="1.1" id="圖層_1" xmlns="http://www.w3.org/2000/svg" xmlns:xlink="http://www.w3.org/1999/xlink" x="0px" y="0px"
	 viewBox="0 0 532.8 144.4" style="enable-background:new 0 0 532.8 144.4;" xml:space="preserve">
<style type="text/css">
	.st0{fill:#F16522;}
	.st1{fill:#001423;}
</style>
<g>
	<g>
		
			<ellipse transform="matrix(0.7071 -0.7071 0.7071 0.7071 48.2264 168.1991)" class="st0" cx="227.1" cy="25.9" rx="9.6" ry="9.6"/>
		
			<ellipse transform="matrix(0.7071 -0.7071 0.7071 0.7071 31.6097 161.3103)" class="st0" cx="210.5" cy="42.5" rx="9.6" ry="9.6"/>
		<ellipse transform="matrix(0.7071 -0.7071 0.7071 0.7071 64.5568 174.9633)" class="st0" cx="243.5" cy="9.6" rx="9.6" ry="9.6"/>
		
			<ellipse transform="matrix(0.7071 -0.7071 0.7071 0.7071 41.2532 184.5977)" class="st0" cx="243.5" cy="42.5" rx="9.6" ry="9.6"/>
		<ellipse transform="matrix(0.7071 -0.7071 0.7071 0.7071 54.9122 151.6746)" class="st0" cx="210.5" cy="9.6" rx="9.6" ry="9.6"/>
	</g>
	<g>
		<path class="st1" d="M8.2,96.2c0,0,26.7,0,27.8,0c0-0.9,0-6.7,0-7.6c-1.1,0-27.8,0-27.8,0V74.5c0,0,28.9,0,30,0c0-0.9,0-6.7,0-7.6
			c-1.1,0-37.1,0-38.2,0c0,1.1,0,51.6,0,52.7c1.1,0,38.7,0,39.8,0c0-0.9,0-6.7,0-7.6c-1.1,0-31.6,0-31.6,0V96.2z"/>
		<path class="st1" d="M51.7,66.6c0,0.9,0,6.7,0,7.6c1.1,0,28.4,0,28.4,0s-29.7,43.6-30.8,45.4c2,0,44,0,45.1,0c0-0.9,0-6.7,0-7.6
			c-1.1,0-29.3,0-29.3,0s29.2-43.7,30.3-45.4C93.3,66.6,52.8,66.6,51.7,66.6z"/>
		<path class="st1" d="M183.3,73.8l-10.3-4.5v50.2h15V86.7c0-5.1,4.1-9.2,9.2-9.2c3.3,0,6.5,1.9,8.9,5.2l8.6-11.9
			c-4.3-3.8-9.9-6.1-16-6.1C192,64.6,186.6,69,183.3,73.8z"/>
		<rect x="219.8" y="66.2" class="st1" width="15" height="53.5"/>
		<path class="st1" d="M275.3,75.9c5.6,0,10.2,1.4,14.7,4.2l5.5-8c-6.9-5.1-13.3-7.4-20.1-7.4c-15.7,0-29.7,11.7-29.7,28.1
			c0,16.4,14,28.1,29.6,28.1c7.6,0,13.9-2,19.7-6.1l-4.1-9.2c-4.5,2.6-9.9,4.1-15.5,4.1c-6.7,0-14.2-4.9-14.2-16.9
			C261.1,80.8,268.7,75.9,275.3,75.9z"/>
		<path class="st1" d="M328.1,64.8c-15.7,0-28.3,11.7-28.3,28.1c0,16.4,12.4,28.1,29,28.1c8.5,0,15.4-2.4,21.6-7.5l-4.4-8.5
			c-5.9,3.5-10.3,4.9-16.6,4.9c-6.7,0-13.5-4.7-14.5-12.9h40.3v-3.4C355.2,77,344,64.8,328.1,64.8z M314.9,88.3
			c1.7-8.8,8.2-12.4,13.9-12.4c5.7,0,11.1,4.2,11.7,12.4H314.9z"/>
		<path class="st1" d="M130.4,64.8c-12.3,0-23.3,5.6-30.4,14.2l6.1,6.5c1.8-1.9,3.9-3.5,6.1-5v63.9h15v-24.7
			c2.6,0.8,5.5,1.2,8.5,1.2c14.9,0,26.6-11.8,26.6-26.6C162.5,79.4,150,64.8,130.4,64.8z M131.6,111c-1.5,0-3.1-0.2-4.3-0.7V75.4
			c1.1-0.1,2.4-0.2,3.6-0.2c8,0,16,7.2,16,19.2C147,106,138,111,131.6,111z"/>
		<path class="st1" d="M374.6,112.5V89.4c0,0,13.7,0,14.3,0c0-0.5,0-4.3,0-4.7c-0.5,0-14.3,0-14.3,0s0-15.4,0-15.9
			c-0.5,0-4.9,0-5.4,0c0,0.5,0,48.2,0,48.2c0,0.7,0.2,1.2,0.6,1.5c0.8,0.6,2.2,0.3,2.2,0.3c7-1.9,11-3.6,17.1-6.2c0-0.3,0-4.2,0-4.9
			c-4.7,1.9-9.5,3.6-14.2,4.8L374.6,112.5z"/>
		<path class="st1" d="M411.8,110.8c-0.5,2.3-1.6,3.5-3.3,3.5h-5.2c-3,0-4.4-1.6-4.4-4.7l0.1-14.2l0.1-0.1
			c7.5-4.8,13.4-9.5,17.5-13.8c-0.2-0.3-2.6-3.5-3-3.9c-3.9,4.3-8.7,8.2-14.2,11.6l-0.4,0.3c0,0,0-20.2,0-20.7c-0.5,0-4.8,0-5.3,0
			c0,0.5,0,41.5,0,41.5c0,3.3,0.7,5.6,2,6.9c1.3,1.3,3.6,1.9,6.7,1.9h7.8c3,0,4.9-1,5.8-3.2c0.9-2.2,1.6-6.2,2-12
			c-0.4-0.1-4.5-1.4-5.1-1.6C412.6,105.9,412.2,108.7,411.8,110.8z"/>
		<path class="st1" d="M422.7,86.8c0.1,0.2,1.6,4.6,1.9,5.4c1.1-1.4,3.1-5.1,4-7.2l0.5-1.1c0,0,0,35.6,0,36.1c0.5,0,4.1,0,4.6,0
			c0-0.5,0-45.4,0-45.4l0,0c0.5-1.6,1.2-4.5,1.4-5.3c-0.4-0.1-4.2-1.1-4.6-1.2C428.6,75.4,426.1,81.5,422.7,86.8z"/>
		<path class="st1" d="M437,115.8c0.3,0.5,1.9,3.8,2.1,4.1c5-0.9,8.4-2.4,13-4.6c-0.3-0.4-2.2-3.1-2.5-3.4
			C446.2,113.4,442.8,114.7,437,115.8z"/>
		<path class="st1" d="M471.3,111.2V89.8h-31.3v21.4H471.3z M443.8,93h23.6v2.9h-23.6V93z M443.8,98.7h23.6v3.2h-23.6V98.7z
			 M443.8,104.7h23.6v3.3h-23.6V104.7z"/>
		<path class="st1" d="M461.3,112c-0.2,0.3-1.5,3-1.7,3.5c3.8,1.1,6.5,2.2,8.8,3c0,0,3.5,1.3,4,1.4c0.2-0.4,1.4-3.7,1.5-4.2
			c-0.5-0.2-3.2-1.1-3.2-1.1C467.4,113.6,464.8,112.7,461.3,112z"/>
		<path class="st1" d="M473.6,76.4c-0.5,0-10.9,0-10.9,0v-3.6c0,0,8.4,0,8.9,0v-3.6h-31.8v3.6c0.5,0,8.6,0,8.6,0v3.6
			c0,0-10.4,0-11,0v10.8h36.2V76.4z M448.3,83.9h-6.7v-4.2h6.7V83.9z M458.9,83.9h-6.7v-4.2h6.7V83.9z M458.9,76.4h-6.7v-3.6h6.7
			V76.4z M469.3,83.9h-6.6v-4.2h6.6V83.9z"/>
		<path class="st1" d="M499,104.3c-0.4,0.1-2.9,0.5-3.3,0.6c0.7,3.5,1.1,7.2,1.6,11.8c0.5-0.1,3.5-1,3.9-1.1c-0.1-0.4-0.5-3-0.5-3
			C500.1,109.9,499.7,107.3,499,104.3z"/>
		<path class="st1" d="M481.2,118.3c0.4,0.1,3.7,1.1,4.1,1.2c1.1-3.1,1.9-7.7,2.4-13.7c-0.5,0-3.3-0.3-3.8-0.3
			C483.5,110,482.6,114.3,481.2,118.3z"/>
		<path class="st1" d="M489.7,105.6c0.1,1.1,0.1,2.2,0.1,3.4c0,0.8,0,1.6,0,2.4l0,2l-0.2,3.6c0,0-0.1,1-0.1,1.4
			c0.5,0,4.1-0.2,4.5-0.2c0.1-1.1,0.1-2.2,0.1-3.4c0-3.3-0.3-6.7-0.8-9.5C492.9,105.4,490.1,105.6,489.7,105.6z"/>
		<path class="st1" d="M501.7,77.3c-0.5-0.2-3.6-1.1-4-1.3c-0.9,2.4-2.1,4.2-3,5.6l-0.9,1.4l-0.1,0c-1.4,0.2-4.5,0.4-6.3,0.4h-0.5
			l0.3-0.4c3.1-4.4,5.9-9.6,7.7-14c-0.5-0.1-4.3-1.1-4.7-1.2c-1.3,4.4-3.9,8.9-6.6,13.8c0,0-0.9,1.6-1,1.8c0,0.2,0.3,3.8,0.4,4.3
			c0.4,0,1.5-0.1,1.5-0.1l7.8-0.5l-0.3,0.5c-2.5,3.4-6.9,8.3-10,11.2c0,0.2,0.3,3.7,0.4,4.1c9.3-0.2,17.7-2,19.2-2.3
			c-0.9-3.7-1.6-5.6-2.8-8.7c-0.4,0.1-3,0.8-3.5,1c0.8,1.9,1.3,4.1,1.3,4.1l0.1,0.3l-0.3,0.1c-2,0.5-3.8,0.7-6.9,0.8l-0.7,0l0.4-0.5
			C492.6,93.5,497.7,86.7,501.7,77.3z"/>
		<path class="st1" d="M503.2,69.6v50.5h4.4c0-0.5,0.1-21.2,0.1-21.2h4.3v5.8c0,2.5,0.5,4.3,1.4,5.1c0.9,0.9,2.6,1.3,4.9,1.3
			c0,0,7.1,0,7.6,0v-3.8c-0.5,0-7.4,0-7.4,0c-1.1,0-2.5-0.5-2.5-2.9v-5.6h12.6v13.9c0,0.9-0.4,2.1-2.3,2.1c0,0-4.9-0.2-5.5-0.3
			c0.2,0.6,1.3,4.4,1.4,4.7c0.4,0,5.4,0,5.4,0c2.2,0,3.7-0.4,4.4-1.3c0.7-0.9,1-2.6,1-5c0,0,0-42.8,0-43.3H503.2z M516.2,95h-8.6
			v-7.1h8.6V95z M528.4,95h-8.2v-7.1h8.2V95z M528.4,84.1h-4.9l0.2-0.4c0.8-1.7,1.6-4.1,2.2-7.3c-0.5-0.1-3.8-0.7-4.2-0.8
			c-0.6,3.4-1.4,6.2-2.3,8.3l-0.1,0.2h-2.8l-0.1-0.2c-0.9-3.1-1.8-5.9-2.7-8.2c-0.4,0.1-3.5,0.6-4.1,0.7c1,2.2,1.9,4.7,2.7,7.4
			l0.1,0.3h-5V73.4h20.9V84.1z"/>
	</g>
</g>
</svg>
